<?xml version="1.0" encoding="utf-8"?>
<!-- Generator: Adobe Illustrator 23.0.3, SVG Export Plug-In . SVG Version: 6.00 Build 0)  -->
<svg version="1.1" id="Capa_1" xmlns="http://www.w3.org/2000/svg" xmlns:xlink="http://www.w3.org/1999/xlink" x="0px" y="0px"
	 viewBox="0 0 553.02 251.23" style="enable-background:new 0 0 553.02 251.23;" xml:space="preserve">
<style type="text/css">
	.st0{fill:#8C1E55;}
</style>
<g>
	<path class="st0" d="M151.68,171.47c-4.74,1.33-9.4,2.64-14.06,3.94c1.46,22.2-15.85,39.99-36,41.42
		c-19.11,1.36-36.15-11.56-40-30.49c-3.83-18.83,6.59-37.75,24.86-44.49c19.17-7.07,41.66,2.43,48.89,22.79
		c4.66-1.3,9.32-2.61,14.08-3.95c-0.52-7.18,0.38-14.12,3.06-20.82c2.69-6.71,6.77-12.41,12.22-17.29
		c-4.08-6.62-8.15-13.22-12.08-19.59c-3.09,0.73-6,1.77-8.98,2.05c-12.06,1.13-21.67-3.37-28.01-13.67
		c-10.76-17.47-0.98-39.88,18.48-44.44c11.11-2.6,20.86,0.4,28.42,8.88c7.43,8.32,9.31,18.19,5.96,29.01
		c-1.27,4.1-3.47,7.67-6.35,10.82c-0.41,0.44-0.69,0.76-0.28,1.42c3.95,6.34,7.86,12.7,11.79,19.06c0.04,0.06,0.1,0.1,0.2,0.19
		c13.94-6.64,27.87-6.92,41.53,0.35c10.31,5.48,17.3,14,20.98,25.15c7.56,22.89-4.04,47.53-26.54,56.47
		C186.89,207.39,160.28,196.07,151.68,171.47z M129.33,177.75c-2.19,0.61-4.35,1.24-6.53,1.79c-0.73,0.19-1,0.51-1.06,1.28
		c-0.4,4.87-2.21,9.19-5.38,12.9c-7.28,8.52-19.18,10.43-28.9,4.68c-8.99-5.32-12.88-16.88-9.13-27.13
		c5.31-14.51,23.49-19.58,35.3-9.86c2.55,2.1,4.5,4.66,6.01,7.65c1.28-0.36,2.53-0.7,3.77-1.05c1.27-0.36,2.54-0.74,3.81-1.11
		c-4.53-12.64-18.88-22.02-34.66-18.26c-15.87,3.78-26,19.47-23.01,35.49c2.97,15.94,17.87,26.65,33.93,24.15
		C119.78,205.74,129.73,191.42,129.33,177.75z M182,129.63c7.82-3.47,15.64-3.92,23.49-0.83c7.85,3.09,13.37,8.66,16.53,16.48
		c5.62,13.93-0.16,30.19-13.24,37.43c-6.61,3.66-13.62,4.82-20.93,3.12c-10.3-2.39-17.29-8.77-21.27-18.56
		c-1.13,0.31-2.16,0.59-3.2,0.89c-1.01,0.29-2.02,0.59-3.04,0.89c4.85,13.75,17.95,23.38,32.97,23.45
		c15.78,0.07,29.62-9.88,34.69-25.03c4.9-14.66-0.05-31.1-12.68-40.4c-12.31-9.07-27.43-8.1-36.75-3.01
		C179.7,125.87,180.81,127.69,182,129.63z M156.93,88.97c5.63-6.24,7.4-18.17,0.05-27.05c-7.22-8.72-19.9-10.09-28.93-3.27
		c-8.22,6.21-11.77,18.23-5.37,28.5c6.68,10.71,18.6,11.35,25.29,8.26c-0.97-1.57-1.92-3.12-2.89-4.69
		c-0.27,0.08-0.44,0.14-0.62,0.19c-6.03,1.72-11.29,0.54-15.74-3.97c-4.99-5.06-5.65-13.58-1.43-19.5c4.7-6.59,13.5-8.63,20.24-4.68
		c6.95,4.07,9.56,12.49,6.19,19.92c-0.12,0.26-0.19,0.69-0.07,0.9C154.7,85.37,155.8,87.12,156.93,88.97z M158.1,158.25
		c1.93-0.54,3.7-1.09,5.48-1.52c0.88-0.21,1.23-0.55,1.28-1.53c0.32-6.21,2.48-11.76,6.22-16.72c0.62-0.82,1.73-1.64,1.74-2.46
		c0.02-0.91-0.95-1.84-1.51-2.75c-0.6-0.99-1.23-1.96-1.9-3.03C161.55,138.03,157.84,147.25,158.1,158.25z"/>
	<g>
		<path class="st0" d="M102.79,101.44c-3.74,1.87-11.23,3.74-20.81,3.74c-22.22,0-38.94-14.03-38.94-39.87
			c0-24.67,16.72-41.39,41.16-41.39c9.82,0,16.02,2.1,18.71,3.51l-2.46,8.3c-3.86-1.87-9.35-3.27-15.9-3.27
			c-18.47,0-30.75,11.81-30.75,32.51c0,19.29,11.11,31.69,30.28,31.69c6.2,0,12.51-1.29,16.6-3.27L102.79,101.44z"/>
		<path class="st0" d="M178.09,62.74c0-5.85-0.12-10.64-0.47-15.32h9.12l0.58,9.35h0.23c2.81-5.38,9.35-10.64,18.71-10.64
			c7.83,0,19.99,4.68,19.99,24.09v33.79h-10.29V71.39c0-9.12-3.39-16.72-13.1-16.72c-6.78,0-12.04,4.79-13.8,10.52
			c-0.47,1.29-0.7,3.04-0.7,4.79v34.03h-10.29V62.74z"/>
		<path class="st0" d="M248.71,77.59c0.23,13.91,9.12,19.64,19.41,19.64c7.37,0,11.81-1.29,15.67-2.92l1.75,7.37
			c-3.63,1.64-9.82,3.51-18.83,3.51c-17.42,0-27.83-11.46-27.83-28.53c0-17.07,10.06-30.52,26.54-30.52
			c18.47,0,23.38,16.25,23.38,26.66c0,2.1-0.23,3.74-0.35,4.79H248.71z M278.88,70.22c0.12-6.55-2.69-16.72-14.27-16.72
			c-10.41,0-14.97,9.59-15.79,16.72H278.88z"/>
		<path class="st0" d="M341.9,101.91c-2.69,1.4-8.65,3.27-16.25,3.27c-17.07,0-28.18-11.58-28.18-28.88
			c0-17.42,11.93-30.05,30.4-30.05c6.08,0,11.46,1.52,14.26,2.92l-2.34,7.95c-2.46-1.4-6.31-2.69-11.93-2.69
			c-12.98,0-20,9.59-20,21.4c0,13.1,8.42,21.16,19.64,21.16c5.85,0,9.71-1.52,12.63-2.81L341.9,101.91z"/>
		<path class="st0" d="M367.86,31.17v16.25h14.73v7.83h-14.73v30.52c0,7.02,1.99,10.99,7.72,10.99c2.69,0,4.68-0.35,5.96-0.7
			l0.47,7.72c-1.99,0.82-5.14,1.4-9.12,1.4c-4.79,0-8.65-1.52-11.11-4.33c-2.92-3.04-3.98-8.07-3.98-14.73V55.26h-8.77v-7.83h8.77
			V33.86L367.86,31.17z"/>
		<path class="st0" d="M425.5,104.02l-0.82-7.13h-0.35c-3.16,4.44-9.24,8.42-17.31,8.42c-11.46,0-17.3-8.07-17.3-16.25
			c0-13.68,12.16-21.16,34.03-21.05v-1.17c0-4.68-1.29-13.1-12.86-13.1c-5.26,0-10.76,1.64-14.73,4.21l-2.34-6.78
			c4.68-3.04,11.46-5.03,18.59-5.03c17.31,0,21.51,11.81,21.51,23.15v21.16c0,4.91,0.23,9.71,0.94,13.56H425.5z M423.98,75.14
			c-11.23-0.23-23.97,1.75-23.97,12.75c0,6.67,4.44,9.82,9.71,9.82c7.37,0,12.04-4.68,13.68-9.47c0.35-1.05,0.58-2.22,0.58-3.27
			V75.14z"/>
		<path class="st0" d="M302.56,119.54c4.44-0.94,11.46-1.64,18.59-1.64c10.17,0,16.72,1.75,21.63,5.73
			c4.09,3.04,6.55,7.72,6.55,13.91c0,7.6-5.03,14.27-13.33,17.31v0.23c7.48,1.87,16.25,8.07,16.25,19.76
			c0,6.78-2.69,11.93-6.67,15.79c-5.5,5.03-14.38,7.37-27.24,7.37c-7.02,0-12.39-0.47-15.79-0.94V119.54z M312.73,151.82h9.24
			c10.76,0,17.07-5.61,17.07-13.21c0-9.24-7.02-12.86-17.31-12.86c-4.68,0-7.37,0.35-9,0.7V151.82z M312.73,189.59
			c1.99,0.35,4.91,0.47,8.54,0.47c10.52,0,20.23-3.86,20.23-15.32c0-10.76-9.24-15.2-20.34-15.2h-8.42V189.59z"/>
		<path class="st0" d="M412.94,181.87c0,5.85,0.12,10.99,0.47,15.43h-9.12l-0.58-9.24h-0.23c-2.69,4.56-8.65,10.52-18.71,10.52
			c-8.89,0-19.53-4.91-19.53-24.79v-33.09h10.29v31.34c0,10.76,3.27,18.01,12.63,18.01c6.9,0,11.69-4.79,13.56-9.35
			c0.58-1.52,0.93-3.39,0.93-5.26v-34.73h10.29V181.87z"/>
		<path class="st0" d="M441.47,124.81c0.12,3.51-2.46,6.31-6.55,6.31c-3.62,0-6.2-2.81-6.2-6.31c0-3.62,2.69-6.43,6.43-6.43
			C439.01,118.38,441.47,121.18,441.47,124.81z M430.01,197.3v-56.59h10.29v56.59H430.01z"/>
		<path class="st0" d="M457.37,156.03c0-5.85-0.12-10.64-0.47-15.32h9.12l0.58,9.35h0.23c2.81-5.38,9.35-10.64,18.71-10.64
			c7.83,0,19.99,4.68,19.99,24.09v33.79h-10.29v-32.62c0-9.12-3.39-16.72-13.1-16.72c-6.78,0-12.04,4.79-13.8,10.52
			c-0.47,1.29-0.7,3.04-0.7,4.79v34.03h-10.29V156.03z"/>
	</g>
</g>
</svg>
